<svg height="682pt" viewBox="-21 -36 682.66465 682" width="682pt" xmlns="http://www.w3.org/2000/svg"><path d="m213.234375 106.996094c-12.523437-28.132813-4.25-48.464844 3.375-76.46875 3.574219-13.140625-4.136719-26.71875-17.351563-30.332032-13.183593-3.5625-26.75 4.234376-30.324218 17.355469-7.957032 29.210938-19.710938 60.496094-3.367188 103.378907 14.578125-8.019532 30.839844-12.824219 47.667969-13.933594zm0 0"/><path d="m426.761719 106.996094c16.828125 1.105468 33.089843 5.914062 47.667969 13.933594 16.339843-42.882813 4.578124-74.214844-3.367188-103.378907-3.578125-13.140625-17.179688-20.929687-30.332031-17.339843-13.148438 3.574218-20.933594 17.128906-17.34375 30.316406 7.769531 28.507812 15.847656 48.414062 3.375 76.46875zm0 0"/><path d="m12.734375 144.351562c-8.46875 0-14.566406 8.113282-12.234375 16.253907 14.128906 49.253906 57 86.480469 109.21875 92.234375-1.984375-13.175782-12.566406-54.441406 17.003906-96.960938-37.503906-17.144531-115.246094-11.527344-113.988281-11.527344zm0 0"/><path d="m513.277344 155.878906c29.332031 42.183594 19.15625 82.515625 16.808594 96.988282 52.304687-5.699219 95.261718-42.945313 109.410156-92.257813 2.335937-8.144531-3.761719-16.257813-12.234375-16.257813-63.734375 0-82.894531-2.6875-113.984375 11.527344zm0 0"/><path d="m309.640625 144.914062c-20.160156 0-68.050781 0-88.894531 0-45.902344 0-80.839844 39.929688-75.933594 84.71875.15625 1.066407 32.359375 214.535157 33.382812 221.332032 18.84375-23.011719 47.472657-37.734375 79.484376-37.734375h124.636718c31.5 0 59.746094 14.265625 78.589844 36.667969 5.082031-36.460938 7.9375-56.265626 13.460938-91.1875-123.476563 26.503906-221.175782-102.660157-164.726563-213.796876zm-52.136719 116.300782c0 10.492187-8.488281 19.019531-18.960937 19.082031h-.125c-10.605469 0-19.082031-8.632813-19.082031-19.082031 0-21.933594 0-17.09375 0-18.832032 0-10.542968 8.535156-19.085937 19.082031-19.085937 10.535156 0 19.085937 8.539063 19.085937 19.085937zm0 0"/><path d="m425.992188 145.214844c-4.433594-.40625-.28125-.300782-71.4375-.300782-14.835938 19.335938-22.917969 43.0625-22.917969 67.660157 0 77.269531 77.160156 130.996093 149.410156 104.574219 2.226563-13.765626 11.929687-73.804688 14.136719-87.601563 4.605468-42.246094-26.359375-80.550781-69.191406-84.332031zm-43.5 116v-18.832032c0-10.546874 8.550781-19.085937 19.085937-19.085937 10.554687 0 19.082031 8.546875 19.082031 19.085937v18.832032c0 10.441406-8.464844 19.082031-19.082031 19.082031h-.125c-10.472656-.0625-18.960937-8.589844-18.960937-19.082031zm0 0"/><path d="m382.316406 451.402344h-124.636718c-35.570313 0-64.515626 28.945312-64.515626 64.519531v28.882813c0 35.550781 28.933594 64.515624 64.515626 64.515624h124.636718c35.667969 0 64.515625-29.054687 64.515625-64.515624 0-2.019532 0 4.832031 0-28.882813 0-35.574219-28.9375-64.519531-64.515625-64.519531zm-132.933594 87.507812c0-4.890625 0-4.570312 0-13.359375 0-10.546875 8.550782-19.082031 19.085938-19.082031s19.082031 8.535156 19.082031 19.082031v13.359375c0 10.53125-8.554687 19.085938-19.082031 19.085938-10.546875 0-19.085938-8.578125-19.085938-19.085938zm141.230469 0c0 10.546875-8.578125 19.085938-19.085937 19.085938-10.574219 0-19.082032-8.597656-19.082032-19.085938 0-4.625 0-8.023437 0-13.359375 0-10.546875 8.546876-19.082031 19.082032-19.082031s19.085937 8.535156 19.085937 19.082031zm0 0"/></svg>